<svg width="266" height="31" viewBox="0 0 266 31" fill="none" xmlns="http://www.w3.org/2000/svg">
<path d="M26.06 16V27.7C24.5933 28.78 23.0267 29.5733 21.36 30.08C19.7067 30.5733 17.9333 30.82 16.04 30.82C13.68 30.82 11.54 30.4533 9.62 29.72C7.71333 28.9867 6.08 27.9667 4.72 26.66C3.37333 25.3533 2.33333 23.7933 1.6 21.98C0.866667 20.1667 0.5 18.1867 0.5 16.04C0.5 13.8667 0.853333 11.8733 1.56 10.06C2.26667 8.24666 3.26667 6.68666 4.56 5.38C5.86667 4.07333 7.44667 3.06 9.3 2.34C11.1533 1.62 13.2333 1.26 15.54 1.26C16.7133 1.26 17.8067 1.35333 18.82 1.54C19.8467 1.72667 20.7933 1.98667 21.66 2.32C22.54 2.64 23.34 3.03333 24.06 3.5C24.78 3.96667 25.44 4.48 26.04 5.04L24.5 7.48C24.26 7.86667 23.9467 8.10667 23.56 8.2C23.1733 8.28 22.7533 8.18 22.3 7.9C21.86 7.64667 21.42 7.39333 20.98 7.14C20.54 6.88667 20.0467 6.66667 19.5 6.48C18.9667 6.29333 18.36 6.14 17.68 6.02C17.0133 5.9 16.24 5.84 15.36 5.84C13.9333 5.84 12.64 6.08 11.48 6.56C10.3333 7.04 9.35333 7.72667 8.54 8.62C7.72667 9.51333 7.1 10.5867 6.66 11.84C6.22 13.0933 6 14.4933 6 16.04C6 17.6933 6.23333 19.1733 6.7 20.48C7.18 21.7733 7.84667 22.8733 8.7 23.78C9.56667 24.6733 10.6067 25.36 11.82 25.84C13.0333 26.3067 14.3867 26.54 15.88 26.54C16.9467 26.54 17.9 26.4267 18.74 26.2C19.58 25.9733 20.4 25.6667 21.2 25.28V20.04H17.56C17.2133 20.04 16.94 19.9467 16.74 19.76C16.5533 19.56 16.46 19.32 16.46 19.04V16H26.06ZM47.8309 9.98V30.5H44.8109C44.1576 30.5 43.7443 30.2 43.5709 29.6L43.2309 27.96C42.3909 28.8133 41.4643 29.5067 40.4509 30.04C39.4376 30.56 38.2443 30.82 36.8709 30.82C35.7509 30.82 34.7576 30.6333 33.8909 30.26C33.0376 29.8733 32.3176 29.3333 31.7309 28.64C31.1443 27.9467 30.6976 27.1267 30.3909 26.18C30.0976 25.22 29.9509 24.1667 29.9509 23.02V9.98H34.8909V23.02C34.8909 24.2733 35.1776 25.2467 35.7509 25.94C36.3376 26.62 37.2109 26.96 38.3709 26.96C39.2243 26.96 40.0243 26.7733 40.7709 26.4C41.5176 26.0133 42.2243 25.4867 42.8909 24.82V9.98H47.8309ZM65.2491 13.98C65.1157 14.1933 64.9757 14.3467 64.8291 14.44C64.6824 14.52 64.4957 14.56 64.2691 14.56C64.0291 14.56 63.7691 14.4933 63.4891 14.36C63.2224 14.2267 62.9091 14.08 62.5491 13.92C62.1891 13.7467 61.7757 13.5933 61.3091 13.46C60.8557 13.3267 60.3157 13.26 59.6891 13.26C58.7157 13.26 57.9491 13.4667 57.3891 13.88C56.8424 14.2933 56.5691 14.8333 56.5691 15.5C56.5691 15.94 56.7091 16.3133 56.9891 16.62C57.2824 16.9133 57.6624 17.1733 58.1291 17.4C58.6091 17.6267 59.1491 17.8333 59.7491 18.02C60.3491 18.1933 60.9557 18.3867 61.5691 18.6C62.1957 18.8133 62.8091 19.06 63.4091 19.34C64.0091 19.6067 64.5424 19.9533 65.0091 20.38C65.4891 20.7933 65.8691 21.2933 66.1491 21.88C66.4424 22.4667 66.5891 23.1733 66.5891 24C66.5891 24.9867 66.4091 25.9 66.0491 26.74C65.7024 27.5667 65.1824 28.2867 64.4891 28.9C63.7957 29.5 62.9357 29.9733 61.9091 30.32C60.8957 30.6533 59.7224 30.82 58.3891 30.82C57.6824 30.82 56.9891 30.7533 56.3091 30.62C55.6424 30.5 54.9957 30.3267 54.3691 30.1C53.7557 29.8733 53.1824 29.6067 52.6491 29.3C52.1291 28.9933 51.6691 28.66 51.2691 28.3L52.4091 26.42C52.5557 26.1933 52.7291 26.02 52.9291 25.9C53.1291 25.78 53.3824 25.72 53.6891 25.72C53.9957 25.72 54.2824 25.8067 54.5491 25.98C54.8291 26.1533 55.1491 26.34 55.5091 26.54C55.8691 26.74 56.2891 26.9267 56.7691 27.1C57.2624 27.2733 57.8824 27.36 58.6291 27.36C59.2157 27.36 59.7157 27.2933 60.1291 27.16C60.5557 27.0133 60.9024 26.8267 61.1691 26.6C61.4491 26.3733 61.6491 26.1133 61.7691 25.82C61.9024 25.5133 61.9691 25.2 61.9691 24.88C61.9691 24.4 61.8224 24.0067 61.5291 23.7C61.2491 23.3933 60.8691 23.1267 60.3891 22.9C59.9224 22.6733 59.3824 22.4733 58.7691 22.3C58.1691 22.1133 57.5491 21.9133 56.9091 21.7C56.2824 21.4867 55.6624 21.24 55.0491 20.96C54.4491 20.6667 53.9091 20.3 53.4291 19.86C52.9624 19.42 52.5824 18.88 52.2891 18.24C52.0091 17.6 51.8691 16.8267 51.8691 15.92C51.8691 15.08 52.0357 14.28 52.3691 13.52C52.7024 12.76 53.1891 12.1 53.8291 11.54C54.4824 10.9667 55.2891 10.5133 56.2491 10.18C57.2224 9.83333 58.3424 9.66 59.6091 9.66C61.0224 9.66 62.3091 9.89333 63.4691 10.36C64.6291 10.8267 65.5957 11.44 66.3691 12.2L65.2491 13.98ZM77.1472 30.82C75.3605 30.82 73.9872 30.32 73.0272 29.32C72.0805 28.3067 71.6072 26.9133 71.6072 25.14V13.68H69.5072C69.2405 13.68 69.0139 13.5933 68.8272 13.42C68.6405 13.2467 68.5472 12.9867 68.5472 12.64V10.68L71.8472 10.14L72.8872 4.54C72.9539 4.27333 73.0805 4.06666 73.2672 3.92C73.4539 3.77333 73.6939 3.7 73.9872 3.7H76.5472V10.16H82.0272V13.68H76.5472V24.8C76.5472 25.44 76.7005 25.94 77.0072 26.3C77.3272 26.66 77.7605 26.84 78.3072 26.84C78.6139 26.84 78.8672 26.8067 79.0672 26.74C79.2805 26.66 79.4605 26.58 79.6072 26.5C79.7672 26.42 79.9072 26.3467 80.0272 26.28C80.1472 26.2 80.2672 26.16 80.3872 26.16C80.5339 26.16 80.6539 26.2 80.7472 26.28C80.8405 26.3467 80.9405 26.4533 81.0472 26.6L82.5272 29C81.8072 29.6 80.9805 30.0533 80.0472 30.36C79.1139 30.6667 78.1472 30.82 77.1472 30.82ZM96.03 21.74C94.6033 21.8067 93.4033 21.9333 92.43 22.12C91.4567 22.2933 90.6767 22.52 90.09 22.8C89.5033 23.08 89.0833 23.4067 88.83 23.78C88.5767 24.1533 88.45 24.56 88.45 25C88.45 25.8667 88.7033 26.4867 89.21 26.86C89.73 27.2333 90.4033 27.42 91.23 27.42C92.2433 27.42 93.1167 27.24 93.85 26.88C94.5967 26.5067 95.3233 25.9467 96.03 25.2V21.74ZM84.71 12.84C87.07 10.68 89.91 9.6 93.23 9.6C94.43 9.6 95.5033 9.8 96.45 10.2C97.3967 10.5867 98.1967 11.1333 98.85 11.84C99.5033 12.5333 99.9967 13.3667 100.33 14.34C100.677 15.3133 100.85 16.38 100.85 17.54V30.5H98.61C98.1433 30.5 97.7833 30.4333 97.53 30.3C97.2767 30.1533 97.0767 29.8667 96.93 29.44L96.49 27.96C95.97 28.4267 95.4633 28.84 94.97 29.2C94.4767 29.5467 93.9633 29.84 93.43 30.08C92.8967 30.32 92.3233 30.5 91.71 30.62C91.11 30.7533 90.4433 30.82 89.71 30.82C88.8433 30.82 88.0433 30.7067 87.31 30.48C86.5767 30.24 85.9433 29.8867 85.41 29.42C84.8767 28.9533 84.4633 28.3733 84.17 27.68C83.8767 26.9867 83.73 26.18 83.73 25.26C83.73 24.74 83.8167 24.2267 83.99 23.72C84.1633 23.2 84.4433 22.7067 84.83 22.24C85.23 21.7733 85.7433 21.3333 86.37 20.92C86.9967 20.5067 87.7633 20.1467 88.67 19.84C89.59 19.5333 90.6567 19.2867 91.87 19.1C93.0833 18.9 94.47 18.78 96.03 18.74V17.54C96.03 16.1667 95.7367 15.1533 95.15 14.5C94.5633 13.8333 93.7167 13.5 92.61 13.5C91.81 13.5 91.1433 13.5933 90.61 13.78C90.09 13.9667 89.63 14.18 89.23 14.42C88.83 14.6467 88.4633 14.8533 88.13 15.04C87.81 15.2267 87.45 15.32 87.05 15.32C86.7033 15.32 86.41 15.2333 86.17 15.06C85.93 14.8733 85.7367 14.66 85.59 14.42L84.71 12.84ZM123.534 9.98L115.394 30.5H110.914L102.774 9.98H106.854C107.227 9.98 107.534 10.0667 107.774 10.24C108.027 10.4133 108.194 10.6333 108.274 10.9L112.234 21.86C112.447 22.5 112.634 23.1267 112.794 23.74C112.954 24.3533 113.094 24.9667 113.214 25.58C113.347 24.9667 113.494 24.3533 113.654 23.74C113.814 23.1267 114.007 22.5 114.234 21.86L118.274 10.9C118.367 10.6333 118.534 10.4133 118.774 10.24C119.014 10.0667 119.3 9.98 119.634 9.98H123.534ZM134.622 9.66C136.142 9.66 137.522 9.90667 138.762 10.4C140.015 10.8933 141.082 11.5933 141.962 12.5C142.855 13.4067 143.542 14.5133 144.022 15.82C144.502 17.1267 144.742 18.5867 144.742 20.2C144.742 21.8267 144.502 23.2933 144.022 24.6C143.542 25.9067 142.855 27.02 141.962 27.94C141.082 28.86 140.015 29.5667 138.762 30.06C137.522 30.5533 136.142 30.8 134.622 30.8C133.088 30.8 131.695 30.5533 130.442 30.06C129.188 29.5667 128.115 28.86 127.222 27.94C126.342 27.02 125.655 25.9067 125.162 24.6C124.682 23.2933 124.442 21.8267 124.442 20.2C124.442 18.5867 124.682 17.1267 125.162 15.82C125.655 14.5133 126.342 13.4067 127.222 12.5C128.115 11.5933 129.188 10.8933 130.442 10.4C131.695 9.90667 133.088 9.66 134.622 9.66ZM134.622 27C136.328 27 137.588 26.4267 138.402 25.28C139.228 24.1333 139.642 22.4533 139.642 20.24C139.642 18.0267 139.228 16.34 138.402 15.18C137.588 14.02 136.328 13.44 134.622 13.44C132.888 13.44 131.602 14.0267 130.762 15.2C129.935 16.36 129.522 18.04 129.522 20.24C129.522 22.44 129.935 24.12 130.762 25.28C131.602 26.4267 132.888 27 134.622 27ZM178.006 6H169.286V30.5H163.906V6H155.186V1.58H178.006V6ZM185.935 9.98V30.5H180.975V9.98H185.935ZM186.615 4C186.615 4.42666 186.528 4.82666 186.355 5.2C186.182 5.57333 185.948 5.9 185.655 6.18C185.375 6.46 185.042 6.68667 184.655 6.86C184.268 7.02 183.855 7.1 183.415 7.1C182.988 7.1 182.582 7.02 182.195 6.86C181.822 6.68667 181.495 6.46 181.215 6.18C180.935 5.9 180.708 5.57333 180.535 5.2C180.375 4.82666 180.295 4.42666 180.295 4C180.295 3.56 180.375 3.14667 180.535 2.76C180.708 2.37333 180.935 2.04 181.215 1.76C181.495 1.48 181.822 1.26 182.195 1.1C182.582 0.926666 182.988 0.839999 183.415 0.839999C183.855 0.839999 184.268 0.926666 184.655 1.1C185.042 1.26 185.375 1.48 185.655 1.76C185.948 2.04 186.182 2.37333 186.355 2.76C186.528 3.14667 186.615 3.56 186.615 4ZM204.191 17.88C204.191 17.24 204.098 16.64 203.911 16.08C203.738 15.5067 203.471 15.0067 203.111 14.58C202.751 14.1533 202.291 13.82 201.731 13.58C201.185 13.3267 200.545 13.2 199.811 13.2C198.385 13.2 197.258 13.6067 196.431 14.42C195.618 15.2333 195.098 16.3867 194.871 17.88H204.191ZM194.771 20.86C194.851 21.9133 195.038 22.8267 195.331 23.6C195.625 24.36 196.011 24.9933 196.491 25.5C196.971 25.9933 197.538 26.3667 198.191 26.62C198.858 26.86 199.591 26.98 200.391 26.98C201.191 26.98 201.878 26.8867 202.451 26.7C203.038 26.5133 203.545 26.3067 203.971 26.08C204.411 25.8533 204.791 25.6467 205.111 25.46C205.445 25.2733 205.765 25.18 206.071 25.18C206.485 25.18 206.791 25.3333 206.991 25.64L208.411 27.44C207.865 28.08 207.251 28.62 206.571 29.06C205.891 29.4867 205.178 29.8333 204.431 30.1C203.698 30.3533 202.945 30.5333 202.171 30.64C201.411 30.7467 200.671 30.8 199.951 30.8C198.525 30.8 197.198 30.5667 195.971 30.1C194.745 29.62 193.678 28.92 192.771 28C191.865 27.0667 191.151 25.92 190.631 24.56C190.111 23.1867 189.851 21.6 189.851 19.8C189.851 18.4 190.078 17.0867 190.531 15.86C190.985 14.62 191.631 13.5467 192.471 12.64C193.325 11.72 194.358 10.9933 195.571 10.46C196.798 9.92667 198.178 9.66 199.711 9.66C201.005 9.66 202.198 9.86667 203.291 10.28C204.385 10.6933 205.325 11.3 206.111 12.1C206.898 12.8867 207.511 13.86 207.951 15.02C208.405 16.1667 208.631 17.48 208.631 18.96C208.631 19.7067 208.551 20.2133 208.391 20.48C208.231 20.7333 207.925 20.86 207.471 20.86H194.771ZM225.218 15.22C224.658 14.54 224.045 14.06 223.378 13.78C222.725 13.5 222.018 13.36 221.258 13.36C220.512 13.36 219.838 13.5 219.238 13.78C218.638 14.06 218.125 14.4867 217.698 15.06C217.272 15.62 216.945 16.34 216.718 17.22C216.492 18.0867 216.378 19.1133 216.378 20.3C216.378 21.5 216.472 22.52 216.658 23.36C216.858 24.1867 217.138 24.8667 217.498 25.4C217.858 25.92 218.298 26.3 218.818 26.54C219.338 26.7667 219.918 26.88 220.558 26.88C221.585 26.88 222.458 26.6667 223.178 26.24C223.898 25.8133 224.578 25.2067 225.218 24.42V15.22ZM230.158 0.779999V30.5H227.138C226.485 30.5 226.072 30.2 225.898 29.6L225.478 27.62C224.652 28.5667 223.698 29.3333 222.618 29.92C221.552 30.5067 220.305 30.8 218.878 30.8C217.758 30.8 216.732 30.5667 215.798 30.1C214.865 29.6333 214.058 28.96 213.378 28.08C212.712 27.1867 212.192 26.0867 211.818 24.78C211.458 23.4733 211.278 21.98 211.278 20.3C211.278 18.78 211.485 17.3667 211.898 16.06C212.312 14.7533 212.905 13.62 213.678 12.66C214.452 11.7 215.378 10.9533 216.458 10.42C217.538 9.87333 218.752 9.6 220.098 9.6C221.245 9.6 222.225 9.78 223.038 10.14C223.852 10.5 224.578 10.9867 225.218 11.6V0.779999H230.158ZM239.694 13.54C240.334 12.3133 241.094 11.3533 241.974 10.66C242.854 9.95333 243.894 9.6 245.094 9.6C246.04 9.6 246.8 9.80667 247.374 10.22L247.054 13.92C246.987 14.16 246.887 14.3333 246.754 14.44C246.634 14.5333 246.467 14.58 246.254 14.58C246.054 14.58 245.754 14.5467 245.354 14.48C244.967 14.4133 244.587 14.38 244.214 14.38C243.667 14.38 243.18 14.46 242.754 14.62C242.327 14.78 241.94 15.0133 241.594 15.32C241.26 15.6133 240.96 15.9733 240.694 16.4C240.44 16.8267 240.2 17.3133 239.974 17.86V30.5H235.034V9.98H237.934C238.44 9.98 238.794 10.0733 238.994 10.26C239.194 10.4333 239.327 10.7533 239.394 11.22L239.694 13.54ZM260.522 21.74C259.096 21.8067 257.896 21.9333 256.922 22.12C255.949 22.2933 255.169 22.52 254.582 22.8C253.996 23.08 253.576 23.4067 253.322 23.78C253.069 24.1533 252.942 24.56 252.942 25C252.942 25.8667 253.196 26.4867 253.702 26.86C254.222 27.2333 254.896 27.42 255.722 27.42C256.736 27.42 257.609 27.24 258.342 26.88C259.089 26.5067 259.816 25.9467 260.522 25.2V21.74ZM249.202 12.84C251.562 10.68 254.402 9.6 257.722 9.6C258.922 9.6 259.996 9.8 260.942 10.2C261.889 10.5867 262.689 11.1333 263.342 11.84C263.996 12.5333 264.489 13.3667 264.822 14.34C265.169 15.3133 265.342 16.38 265.342 17.54V30.5H263.102C262.636 30.5 262.276 30.4333 262.022 30.3C261.769 30.1533 261.569 29.8667 261.422 29.44L260.982 27.96C260.462 28.4267 259.956 28.84 259.462 29.2C258.969 29.5467 258.456 29.84 257.922 30.08C257.389 30.32 256.816 30.5 256.202 30.62C255.602 30.7533 254.936 30.82 254.202 30.82C253.336 30.82 252.536 30.7067 251.802 30.48C251.069 30.24 250.436 29.8867 249.902 29.42C249.369 28.9533 248.956 28.3733 248.662 27.68C248.369 26.9867 248.222 26.18 248.222 25.26C248.222 24.74 248.309 24.2267 248.482 23.72C248.656 23.2 248.936 22.7067 249.322 22.24C249.722 21.7733 250.236 21.3333 250.862 20.92C251.489 20.5067 252.256 20.1467 253.162 19.84C254.082 19.5333 255.149 19.2867 256.362 19.1C257.576 18.9 258.962 18.78 260.522 18.74V17.54C260.522 16.1667 260.229 15.1533 259.642 14.5C259.056 13.8333 258.209 13.5 257.102 13.5C256.302 13.5 255.636 13.5933 255.102 13.78C254.582 13.9667 254.122 14.18 253.722 14.42C253.322 14.6467 252.956 14.8533 252.622 15.04C252.302 15.2267 251.942 15.32 251.542 15.32C251.196 15.32 250.902 15.2333 250.662 15.06C250.422 14.8733 250.229 14.66 250.082 14.42L249.202 12.84Z" fill="#141414"/>
</svg>
