<svg width="24" height="25" viewBox="0 0 24 25" fill="none" xmlns="http://www.w3.org/2000/svg">
<g clip-path="url(#clip0_14_168)">
<path d="M18.5 5C16.55 5 14.45 5.4 13 6.5C11.55 5.4 9.45 5 7.5 5C6.05 5 4.51 5.22 3.22 5.79C2.49 6.12 2 6.83 2 7.64V18.92C2 20.22 3.22 21.18 4.48 20.86C5.46 20.61 6.5 20.5 7.5 20.5C9.06 20.5 10.72 20.76 12.06 21.42C12.66 21.72 13.34 21.72 13.93 21.42C15.27 20.75 16.93 20.5 18.49 20.5C19.49 20.5 20.53 20.61 21.51 20.86C22.77 21.19 23.99 20.23 23.99 18.92V7.64C23.99 6.83 23.5 6.12 22.77 5.79C21.49 5.22 19.95 5 18.5 5ZM22 17.73C22 18.36 21.42 18.82 20.8 18.71C20.05 18.57 19.27 18.51 18.5 18.51C16.8 18.51 14.35 19.16 13 20.01V8.5C14.35 7.65 16.8 7 18.5 7C19.42 7 20.33 7.09 21.2 7.28C21.66 7.38 22 7.79 22 8.26V17.73Z" fill="url(#paint0_linear_14_168)"/>
<path d="M13.9799 11.51C13.6599 11.51 13.3699 11.31 13.2699 10.99C13.1399 10.6 13.3599 10.17 13.7499 10.05C15.2899 9.54998 17.2799 9.38998 19.1099 9.59998C19.5199 9.64998 19.8199 10.02 19.7699 10.43C19.7199 10.84 19.3499 11.14 18.9399 11.09C17.3199 10.9 15.5499 11.05 14.2099 11.48C14.1299 11.49 14.0499 11.51 13.9799 11.51Z" fill="url(#paint1_linear_14_168)"/>
<path d="M13.9799 14.17C13.6599 14.17 13.3699 13.97 13.2699 13.65C13.1399 13.26 13.3599 12.83 13.7499 12.71C15.2799 12.21 17.2799 12.05 19.1099 12.26C19.5199 12.31 19.8199 12.68 19.7699 13.09C19.7199 13.5 19.3499 13.8 18.9399 13.75C17.3199 13.56 15.5499 13.71 14.2099 14.14C14.1299 14.16 14.0499 14.17 13.9799 14.17Z" fill="url(#paint2_linear_14_168)"/>
<path d="M13.9799 16.83C13.6599 16.83 13.3699 16.63 13.2699 16.31C13.1399 15.92 13.3599 15.49 13.7499 15.37C15.2799 14.87 17.2799 14.71 19.1099 14.92C19.5199 14.97 19.8199 15.34 19.7699 15.75C19.7199 16.16 19.3499 16.45 18.9399 16.41C17.3199 16.22 15.5499 16.37 14.2099 16.8C14.1299 16.82 14.0499 16.83 13.9799 16.83Z" fill="url(#paint3_linear_14_168)"/>
</g>
<defs>
<linearGradient id="paint0_linear_14_168" x1="12.995" y1="5" x2="12.995" y2="21.645" gradientUnits="userSpaceOnUse">
<stop stop-color="#001D68"/>
<stop offset="1" stop-color="#1766DB"/>
</linearGradient>
<linearGradient id="paint1_linear_14_168" x1="16.5039" y1="9.50989" x2="16.5039" y2="11.51" gradientUnits="userSpaceOnUse">
<stop stop-color="#001D68"/>
<stop offset="1" stop-color="#1766DB"/>
</linearGradient>
<linearGradient id="paint2_linear_14_168" x1="16.5039" y1="12.1699" x2="16.5039" y2="14.17" gradientUnits="userSpaceOnUse">
<stop stop-color="#001D68"/>
<stop offset="1" stop-color="#1766DB"/>
</linearGradient>
<linearGradient id="paint3_linear_14_168" x1="16.5039" y1="14.83" x2="16.5039" y2="16.83" gradientUnits="userSpaceOnUse">
<stop stop-color="#001D68"/>
<stop offset="1" stop-color="#1766DB"/>
</linearGradient>
<clipPath id="clip0_14_168">
<rect width="24" height="24" fill="white" transform="translate(0 0.5)"/>
</clipPath>
</defs>
</svg>
